<svg xmlns="http://www.w3.org/2000/svg" viewBox="0 0 512 512">
  <!-- Background with gradient like the branded image -->
  <defs>
    <linearGradient id="skyGrad" x1="0%" y1="0%" x2="0%" y2="100%">
      <stop offset="0%" style="stop-color:#87CEEB;stop-opacity:1" />
      <stop offset="50%" style="stop-color:#98D4BB;stop-opacity:1" />
      <stop offset="100%" style="stop-color:#4CAF50;stop-opacity:1" />
    </linearGradient>
    <linearGradient id="buildingGrad" x1="0%" y1="0%" x2="0%" y2="100%">
      <stop offset="0%" style="stop-color:#1e3a5f;stop-opacity:1" />
      <stop offset="100%" style="stop-color:#152a45;stop-opacity:1" />
    </linearGradient>
  </defs>
  
  <!-- Rounded background -->
  <rect width="512" height="512" rx="80" fill="url(#skyGrad)"/>
  
  <!-- Airport Building - GIAA Style Latte Stone inspired -->
  <g transform="translate(256, 180)">
    <!-- Main roof/canopy -->
    <path d="M-120 0 L0 -80 L120 0 Z" fill="#1e3a5f"/>
    <path d="M-100 0 L0 -65 L100 0 Z" fill="#2d4a6f"/>
    
    <!-- Center pillar -->
    <rect x="-15" y="-80" width="30" height="20" fill="#8B9DC3"/>
    
    <!-- Building body -->
    <rect x="-90" y="0" width="180" height="120" fill="url(#buildingGrad)" rx="4"/>
    
    <!-- Windows - left column -->
    <rect x="-75" y="15" width="35" height="45" fill="#60a5fa" rx="3"/>
    <rect x="-75" y="70" width="35" height="45" fill="#60a5fa" rx="3"/>
    
    <!-- Windows - right column -->
    <rect x="40" y="15" width="35" height="45" fill="#60a5fa" rx="3"/>
    <rect x="40" y="70" width="35" height="45" fill="#60a5fa" rx="3"/>
    
    <!-- Center entrance -->
    <rect x="-20" y="50" width="40" height="70" fill="#60a5fa" rx="3"/>
    
    <!-- Wing extensions -->
    <path d="M-90 60 L-130 40 L-130 80 L-90 80 Z" fill="#1e3a5f"/>
    <path d="M90 60 L130 40 L130 80 L90 80 Z" fill="#1e3a5f"/>
  </g>
  
  <!-- Golf Ball -->
  <circle cx="380" cy="380" r="70" fill="white" stroke="#ddd" stroke-width="2"/>
  <!-- Golf ball dimples -->
  <circle cx="360" cy="360" r="8" fill="#e5e5e5"/>
  <circle cx="390" cy="350" r="8" fill="#e5e5e5"/>
  <circle cx="410" cy="375" r="8" fill="#e5e5e5"/>
  <circle cx="370" cy="395" r="8" fill="#e5e5e5"/>
  <circle cx="400" cy="405" r="8" fill="#e5e5e5"/>
  <circle cx="355" cy="380" r="6" fill="#e5e5e5"/>
  <circle cx="385" cy="380" r="6" fill="#e5e5e5"/>
  
  <!-- Golf Tee -->
  <path d="M380 450 L375 480 L385 480 Z" fill="#D4A574"/>
  
  <!-- Simple palm tree silhouette left -->
  <g transform="translate(80, 320)">
    <rect x="-5" y="0" width="10" height="60" fill="#2d5016"/>
    <ellipse cx="0" cy="-10" rx="40" ry="20" fill="#228B22"/>
    <ellipse cx="-25" cy="5" rx="30" ry="15" fill="#2d8B2d" transform="rotate(-30)"/>
    <ellipse cx="25" cy="5" rx="30" ry="15" fill="#2d8B2d" transform="rotate(30)"/>
  </g>
</svg>
